<?xml version="1.0" encoding="UTF-8"?>
<svg version="1.1" xmlns="http://www.w3.org/2000/svg" width="1200" height="867">
<path d="M0 0 C3.94466501 3.20704472 7.56770844 6.67681479 11.19042969 10.23925781 C13.02049283 12.01993986 14.88147226 13.76040352 16.7578125 15.4921875 C24.942177 23.04951166 32.89778984 30.80432683 40.7097168 38.74658203 C41.41394775 39.45927246 42.11817871 40.17196289 42.84375 40.90625 C43.45412109 41.52822266 44.06449219 42.15019531 44.69335938 42.79101562 C46.65057857 44.66537203 48.64659071 46.43268009 50.69946289 48.19946289 C54.66278855 51.65998307 58.41185729 55.28251736 62.11523438 59.01757812 C62.77654861 59.68035263 63.43786285 60.34312714 64.11921692 61.02598572 C65.54054857 62.45109348 66.96072501 63.87735418 68.37983704 65.30467224 C70.63179056 67.56950817 72.88695696 69.8311015 75.14294434 72.09191895 C80.74262673 77.70489872 86.33682943 83.32332959 91.93121338 88.94158936 C96.66914707 93.69932059 101.40916875 98.45495322 106.15193176 103.20787048 C108.36292687 105.42530078 110.57086441 107.64574414 112.77868652 109.86633301 C114.14722973 111.23851207 115.51591541 112.61054907 116.88476562 113.98242188 C117.79057121 114.89597694 117.79057121 114.89597694 118.7146759 115.82798767 C122.41659719 119.5303589 126.25405623 123.01606523 130.21431732 126.44016266 C132.2493131 128.21778107 134.18379652 130.06947282 136.0859375 131.98828125 C137.12741943 133.03471802 137.12741943 133.03471802 138.18994141 134.10229492 C138.91101074 134.8316626 139.63208008 135.56103027 140.375 136.3125 C141.14376465 137.08505127 141.9125293 137.85760254 142.70458984 138.65356445 C145.9585983 141.92376036 149.20656266 145.1999349 152.45507812 148.47558594 C154.84295352 150.88165285 157.23390793 153.28463038 159.625 155.6875 C160.34606934 156.41686768 161.06713867 157.14623535 161.81005859 157.89770508 C165.8494537 161.95631754 169.98619328 165.82809809 174.33500671 169.55422974 C176.26852414 171.23316864 178.05036875 173.01795301 179.8125 174.875 C189.55798311 185.01933113 189.55798311 185.01933113 202.0625 190.5625 C213.43989305 188.93715814 222.08558319 178.53062838 229.98730469 170.90087891 C232.21890472 168.79325666 234.50528111 166.7565367 236.80078125 164.71875 C242.28584937 159.80757336 247.45829067 154.61724602 252.625 149.375 C258.00473203 143.91730084 263.38159449 138.56842074 269.20361328 133.58251953 C271.4558165 131.59845032 273.53344786 129.48225964 275.61352539 127.32055664 C286.7065455 115.79392146 300.47774087 101.89970036 317.3125 101.4375 C328.1757786 102.00862527 333.37559488 106.78713947 341 114 C342.01857836 114.93215753 343.0394759 115.86178626 344.0625 116.7890625 C348.90635085 121.18114348 353.68007514 125.61282869 358.25463867 130.28759766 C359.99040118 131.99058244 361.78920676 133.56476668 363.640625 135.140625 C369.13846074 139.92255733 374.18356325 145.13550118 379.2890625 150.328125 C380.41441406 151.46507812 380.41441406 151.46507812 381.5625 152.625 C382.22378906 153.29789063 382.88507812 153.97078125 383.56640625 154.6640625 C385.60642298 156.6222166 387.68359066 158.47488157 389.82226562 160.32226562 C393.81650927 163.7934425 397.5660061 167.45310503 401.28125 171.21875 C401.93903442 171.88032104 402.59681885 172.54189209 403.27453613 173.22351074 C406.05066558 176.01578144 408.82071537 178.81405416 411.59130859 181.61181641 C413.6316708 183.67040898 415.67514331 185.72587903 417.71875 187.78125 C418.63630066 188.71124817 418.63630066 188.71124817 419.5723877 189.66003418 C422.5063741 192.61033045 425.47805158 195.44450771 428.64453125 198.14453125 C434.08319984 202.84591957 439.09531566 207.98436777 444.15748596 213.08232117 C446.00615875 214.94392032 447.85807961 216.80223504 449.71081543 218.65979004 C454.30880408 223.27104913 458.90129439 227.88777148 463.49395752 232.5043335 C467.38635575 236.41655982 471.28086279 240.3266643 475.17811584 244.23405457 C476.99025805 246.05261291 478.79932843 247.87418796 480.60827637 249.69592285 C481.73414312 250.82542672 482.86015311 251.95478786 483.98632812 253.08398438 C484.47798965 253.58081223 484.96965118 254.07764008 485.47621155 254.58952332 C488.12425475 257.2379562 490.84132025 259.75669767 493.67651367 262.20428467 C499.0191416 266.83686831 504.09532333 271.74613868 509.18945312 276.64746094 C509.72813522 277.1646809 510.26681732 277.68190086 510.82182312 278.21479416 C521.43428913 288.40547058 531.9644945 298.68008195 542.46601105 308.98495102 C549.13674865 315.52767277 555.83065491 322.04264115 562.58789062 328.49609375 C568.50801376 334.15015292 574.37771933 339.85138447 580.1936717 345.61261201 C583.2639382 348.65081582 586.35237349 351.66187871 589.50257874 354.61730194 C611.05320472 374.88714496 611.05320472 374.88714496 611.78063202 389.04156876 C611.55640107 399.13446983 610.65242134 411.56621927 603 419 C598.74472982 421.93816275 594.78236961 422.71729707 589.69921875 422.52734375 C580.526825 420.73534208 573.31902264 412.8471527 566.7578125 406.609375 C564.61240749 404.57944505 562.44704517 402.64762668 560.1875 400.75 C555.41622141 396.62889564 551.04123778 392.09132614 546.62963867 387.59277344 C543.67577024 384.59793866 540.70104562 381.70559634 537.48950195 378.98730469 C531.86166292 374.08725565 526.64695343 368.77060864 521.38671875 363.484375 C520.23619609 362.33192965 519.08544294 361.17971436 517.93447876 360.02770996 C515.47006381 357.56015074 513.007207 355.09105079 510.54556274 352.62072754 C506.64732994 348.70889294 502.74521476 344.80094635 498.8425293 340.89355469 C489.85527567 331.89429377 480.87305696 322.89001298 471.8908844 313.88568115 C463.65374107 305.62832082 455.41552108 297.3720422 447.17323399 289.11981583 C443.29949939 285.24112048 439.42821116 281.36000528 435.55882263 277.47697449 C433.14543082 275.05608614 430.72993554 272.63730482 428.31388474 270.21907043 C427.20045572 269.10378072 426.08788568 267.98763264 424.9762764 266.87052917 C419.6952312 261.56422155 414.39075671 256.34546076 408.7003479 251.47450256 C406.26434647 249.36205819 403.99283852 247.1048551 401.72070312 244.81835938 C401.2544603 244.35065628 400.78821747 243.88295319 400.30784607 243.40107727 C399.31212287 242.40159635 398.3175541 241.40096415 397.32408142 240.39924622 C395.74426867 238.80646509 394.16117414 237.21700843 392.57727051 235.6282959 C388.64707341 231.68485384 384.72239228 227.73593714 380.79754639 223.78717041 C377.46884286 220.43860973 374.13801069 217.09219307 370.8044281 213.74848938 C369.25818445 212.19584762 367.7150262 210.64018597 366.17199707 209.08435059 C361.46421893 204.35244893 356.70233484 199.75386794 351.63009644 195.41192627 C349.68398256 193.72627795 347.8837352 191.93873929 346.11328125 190.0703125 C345.48486328 189.420625 344.85644531 188.7709375 344.20898438 188.1015625 C342.92732425 186.7657849 341.65141106 185.42447299 340.38085938 184.078125 C339.75630859 183.43617188 339.13175781 182.79421875 338.48828125 182.1328125 C337.93696533 181.55418457 337.38564941 180.97555664 336.81762695 180.37939453 C334.59184747 178.69025362 332.74114128 178.3654073 330 178 C324.91120261 185.74382212 325.41266456 195.27705168 327.125 204.0625 C331.61701283 222.25114123 341.77903981 238.22629568 353 253 C353.43570313 253.57459961 353.87140625 254.14919922 354.3203125 254.74121094 C363.33264243 266.55342407 373.01714712 277.78619156 383 288.78515625 C384.79603529 290.77412502 386.55953303 292.78563194 388.3125 294.8125 C392.89768754 300.07384423 397.66583005 305.16880172 402.41064453 310.28564453 C406.47546677 314.67015786 410.53143736 319.06282884 414.58154297 323.4609375 C415.93919841 324.93402871 417.29961357 326.40457502 418.66015625 327.875 C423.52546715 333.16893952 428.19290532 338.56899862 432.69921875 344.171875 C434.32375997 346.16876437 435.96231489 348.13151674 437.64453125 350.078125 C448.10397514 362.22120072 448.10397514 362.22120072 449.5625 370 C448.58722873 375.20144676 445.76825603 379.338911 441.9375 382.9375 C432.50653485 388.1093196 419.21661306 383.95279251 409.3046875 382.33398438 C397.72606711 380.31455881 397.72606711 380.31455881 387 384 C386.40694509 389.7974143 387.04051357 393.07883183 390.125 398.125 C390.48352051 398.71804932 390.84204102 399.31109863 391.21142578 399.92211914 C392.45483812 401.96074901 393.72642784 403.98009218 395 406 C395.91159815 407.47517402 396.82304982 408.95043857 397.734375 410.42578125 C405.55299309 422.9612711 413.78963357 435.21973596 422 447.5 C467.81191153 516.04057787 467.81191153 516.04057787 466 535 C464.71810369 539.84997712 462.45880804 543.03584692 458.375 545.9375 C447.63751594 551.73888791 435.10122425 548.11510313 424.03515625 544.8828125 C382.21634156 531.68413235 343.50605123 502.72509198 308.03515625 477.47265625 C290.6005417 463.75877892 290.6005417 463.75877892 270 458 C269.34 458 268.68 458 268 458 C267.51266423 464.51585979 269.25356472 469.75405579 271.375 475.875 C271.72933105 476.91930176 272.08366211 477.96360352 272.44873047 479.03955078 C275.47908801 487.82142997 278.91002375 496.42203596 282.40527344 505.02685547 C284.94744396 511.30687001 287.41215721 517.59569251 289.625 524 C289.9964917 525.03036377 289.9964917 525.03036377 290.37548828 526.08154297 C292.44876499 532.27086129 293.04198027 538.27100406 290.6875 544.4375 C289 547 289 547 286 549 C280.69859124 549.89925277 275.89604769 549.21139462 271.22265625 546.58203125 C266.04736929 542.89839115 261.54582995 538.41560696 257 534 C256.11699219 533.15695312 255.23398437 532.31390625 254.32421875 531.4453125 C249.28352725 526.53788967 244.73017726 521.3999538 240.33984375 515.90625 C237.824576 512.78211109 235.23232034 509.73457064 232.625 506.6875 C226.88489673 499.94453504 221.4172526 493.00353113 216 486 C215.22398437 484.99839844 214.44796875 483.99679687 213.6484375 482.96484375 C211.59329822 480.30141073 209.54436176 477.63349959 207.50048828 474.96142578 C206.41107052 473.53734796 205.32078739 472.11393201 204.22998047 470.69091797 C195.25243616 458.9756219 186.36815498 447.19936147 177.66601562 435.27783203 C176.03936255 433.05381779 174.4031429 430.83711508 172.765625 428.62109375 C137.17441162 380.21270976 137.17441162 380.21270976 137.6328125 363.27734375 C138 361 138 361 139.9375 358.4375 C149.69985854 353.85516844 159.32792112 357.3137487 169.01269531 360.70471191 C173.99587376 362.55512812 178.90348582 364.58777098 183.8125 366.625 C185.42008274 367.28441847 187.02783482 367.94342425 188.63574219 368.60205078 C202.49600365 374.29981319 216.26201061 380.21832523 230.0246582 386.14697266 C280.47907192 412.18930266 280.47907192 412.18930266 334 424 C336.16666667 422.5 336.16666667 422.5 337 420 C335.97284614 408.73243338 326.91324665 400.37058033 319.46484375 392.57666016 C317.81530851 390.8012104 316.2371571 388.97349262 314.65625 387.13671875 C310.96258962 382.88870721 307.01710181 378.94014584 303 375 C301.64327703 373.6692679 300.28909535 372.3359398 298.9375 371 C298.34839844 370.4225 297.75929688 369.845 297.15234375 369.25 C295.34102903 367.35650222 293.64098454 365.42629099 291.9375 363.4375 C287.70718823 358.57530468 283.15820759 354.0445651 278.58444214 349.50927734 C277.02526273 347.9630726 275.46941379 346.41358104 273.91430664 344.86328125 C270.61236864 341.57267017 267.30649584 338.28603038 264 335 C260.16288524 331.18663495 256.32748325 327.37157851 252.49630737 323.55224609 C250.97690534 322.03923948 249.45448297 320.5293203 247.93188477 319.01953125 C246.98438709 318.07567206 246.03703288 317.13166882 245.08984375 316.1875 C244.27378662 315.37667969 243.45772949 314.56585938 242.61694336 313.73046875 C240.6124438 311.63901217 238.71846691 309.53028011 236.83413601 307.33497715 C233.06729037 303.01904984 229.09273962 298.95300482 225.03688049 294.90989685 C224.26475265 294.13620902 223.49262481 293.36252118 222.69709915 292.56538826 C220.12798528 289.99230892 217.55533973 287.42279116 214.98266602 284.85327148 C213.13236127 283.00161072 211.28226911 281.14973751 209.43237305 279.29766846 C204.94024913 274.80111219 200.44544331 270.3072462 195.94965047 265.81435852 C192.29387006 262.16084212 188.6390737 258.50634398 184.98496819 254.85115242 C184.46368312 254.32971413 183.94239806 253.80827583 183.40531648 253.27103638 C182.34613785 252.21153799 181.28696144 251.15203738 180.22778725 250.09253455 C170.31005205 240.17195199 160.38926152 230.25442939 150.46741312 220.33796079 C141.9653894 211.84040443 133.46599085 203.34022973 124.96850586 194.83813477 C115.08603287 184.95030289 105.20193019 175.06410475 95.31524414 165.18048531 C94.25977653 164.12533623 93.204311 163.07018507 92.14884758 162.01503181 C91.62962135 161.49595986 91.11039512 160.97688791 90.57543476 160.4420865 C86.92733858 156.79485152 83.28039949 153.14646204 79.63391304 149.49761772 C74.72053591 144.5811332 69.80449577 139.66732477 64.8866806 134.75527954 C63.08471322 132.95463178 61.2835914 131.15313738 59.4833889 129.35072517 C57.02127118 126.88586458 54.55607709 124.42412129 52.09010315 121.96311951 C51.38279149 121.25357713 50.67547983 120.54403475 49.94673449 119.81299108 C46.00193704 115.88354804 41.95631826 112.13286675 37.73046535 108.50664288 C35.34969343 106.43380561 33.12911175 104.22442055 30.9140625 101.9765625 C29.61275391 100.66365234 29.61275391 100.66365234 28.28515625 99.32421875 C27.40730469 98.43347656 26.52945313 97.54273438 25.625 96.625 C23.8486586 94.82324599 22.07012661 93.02364817 20.2890625 91.2265625 C19.51256348 90.43846191 18.73606445 89.65036133 17.93603516 88.83837891 C16.12774043 86.94237659 16.12774043 86.94237659 14 86 C14.01571045 86.74048584 14.0314209 87.48097168 14.04760742 88.24389648 C14.11047539 91.64168473 14.14915441 95.03935004 14.1875 98.4375 C14.22520508 100.18450195 14.22520508 100.18450195 14.26367188 101.96679688 C14.33211592 110.06600941 13.54042463 116.63046963 9.4375 123.6875 C6.40070832 126.56855877 3.09446923 128.46020824 -0.5625 130.47265625 C-3.73965719 132.46347109 -6.38858445 134.36192946 -7.73046875 137.95703125 C-9.07072157 148.11575915 -6.99775099 155.11892712 -1 163.375 C5.64355217 171.52651048 13.93153692 178.31205069 22.17578125 184.77734375 C26.50629471 188.18545185 30.77203389 191.67264637 35.04370117 195.15405273 C38.0008754 197.56387292 40.96029402 199.96840373 43.9453125 202.34375 C74.85768839 227.07365071 74.85768839 227.07365071 76.2734375 238.13671875 C76.49535371 243.71022963 75.97192538 247.14818744 72.58203125 251.625 C68.96799277 254.76609023 64.96835939 255.25428387 60.32421875 255.34375 C59.24849609 255.37339844 58.17277344 255.40304687 57.06445312 255.43359375 C55.95005859 255.45550781 54.83566406 255.47742188 53.6875 255.5 C42.018933 255.54877904 42.018933 255.54877904 31 259 C31 270.55067834 38.43994235 279.57683597 44.44824219 288.94970703 C64.51892005 320.31882501 64.51892005 320.31882501 62.4375 333.4375 C61.45200712 337.2699723 60.34164652 339.67097364 57 342 C36.38269229 348.8724359 4.96952009 325.98061582 -13.29507446 317.04507446 C-46.86841472 297.26805599 -46.86841472 297.26805599 -83 293 C-86.89429123 294.93474341 -88.81990857 297.69046785 -91 301.4375 C-97.10748353 321.61070318 -79.07068163 354.7471648 -72.52001953 373.83325195 C-67.83174594 387.49910036 -63.23630694 401.18582178 -59 415 C-58.61199219 416.25167969 -58.22398437 417.50335938 -57.82421875 418.79296875 C-56.27265188 424.83010809 -55.71854794 431.32653695 -58.6875 437 C-61.66736102 440.86576564 -64.17193638 442.62624125 -68.98046875 443.609375 C-75.54259352 443.89711738 -79.35319272 443.44386745 -84.3125 438.9375 C-85.87739256 437.29394139 -87.43956931 435.6477954 -89 434 C-90.19294911 432.94947194 -91.39582335 431.91016509 -92.60546875 430.87890625 C-98.52985303 425.75984526 -103.94359037 420.11431895 -109.43652344 414.54296875 C-110.85133713 413.10980594 -112.26935698 411.67986733 -113.6875 410.25 C-114.93080078 408.98929687 -114.93080078 408.98929687 -116.19921875 407.703125 C-118.26335002 405.71096483 -120.32801137 403.84748496 -122.50561523 401.98999023 C-128.70674626 396.60751495 -134.42508936 390.71864116 -140.22265625 384.91015625 C-141.49468167 383.63880593 -142.76685539 382.36760396 -144.03916931 381.09654236 C-146.69416228 378.44301665 -149.34735643 375.78770906 -151.99926758 373.13110352 C-155.38033978 369.74433465 -158.76588258 366.36207607 -162.15279484 362.98114872 C-164.77730568 360.36026982 -167.39940744 357.73699108 -170.02081108 355.11300468 C-171.26747921 353.86567456 -172.51487648 352.61907269 -173.76304817 351.37324715 C-175.51383063 349.62503476 -177.2613246 347.87359611 -179.00805664 346.12133789 C-179.51266418 345.61875458 -180.01727173 345.11617126 -180.53717041 344.59835815 C-183.21855767 341.90141583 -185.76844114 339.13694337 -188.24755859 336.25244141 C-192.61300068 331.21967085 -197.3167205 326.54346751 -202.03100586 321.83959961 C-203.02417767 320.84506968 -204.0171373 319.85032782 -205.00990295 318.85539246 C-207.68530337 316.17546652 -210.36381708 313.49867332 -213.04307246 310.82260203 C-215.85953084 308.00869264 -218.67352897 305.19232455 -221.4879303 302.37635803 C-226.21273265 297.64974136 -230.93962802 292.92522554 -235.66772461 288.2019043 C-241.1176487 282.7574214 -246.56396124 277.30934568 -252.0084123 271.8593902 C-256.70063413 267.16261619 -261.39481964 262.46781147 -266.09062296 257.77461821 C-268.88749264 254.97929975 -271.68370093 252.18332867 -274.47813225 249.38557243 C-277.1065705 246.75422479 -279.7374826 244.12537492 -282.37024498 241.49835396 C-283.78493184 240.08559897 -285.19718782 238.67041106 -286.60934448 237.25512695 C-291.07261725 232.80650357 -295.58878312 228.49295665 -300.38282585 224.40118504 C-302.41670277 222.63895188 -304.27123477 220.7489954 -306.10546875 218.78125 C-306.77900391 218.07742188 -307.45253906 217.37359375 -308.14648438 216.6484375 C-309.52835415 215.19383774 -310.90051867 213.72996666 -312.26367188 212.2578125 C-312.93333984 211.56429687 -313.60300781 210.87078125 -314.29296875 210.15625 C-315.18278442 209.20975586 -315.18278442 209.20975586 -316.09057617 208.24414062 C-317.97857482 206.74198449 -317.97857482 206.74198449 -320.55517578 207.16870117 C-323.99960848 208.33989084 -326.03720042 210.34298484 -328.6875 212.8125 C-329.64011719 213.68519531 -330.59273437 214.55789063 -331.57421875 215.45703125 C-336.23094541 220.33872055 -336.44484124 224.05636227 -336.30859375 230.65234375 C-334.42174822 251.12103513 -319.33258922 267.53753034 -306 282 C-303.63917935 284.64326646 -301.31824433 287.31938481 -299 290 C-298.36892334 290.71760498 -298.36892334 290.71760498 -297.72509766 291.44970703 C-280.90618121 310.59131996 -280.90618121 310.59131996 -280.75 322.8125 C-280.71132813 324.61654297 -280.71132813 324.61654297 -280.671875 326.45703125 C-281.12911249 331.39410743 -282.3646261 334.60035567 -286.16796875 337.85546875 C-289.90932752 339.36749374 -293.34445075 339.40405081 -297.3125 339.3125 C-298.10285645 339.30412109 -298.89321289 339.29574219 -299.70751953 339.28710938 C-306.31938596 339.15505692 -312.75130385 338.36621881 -319.29296875 337.453125 C-326.35689191 336.58967391 -333.46624149 335.75028473 -340 339 C-344.08037132 347.16074263 -338.61106152 360.93314877 -336.5 369.4375 C-335.86111628 372.06036978 -335.22756571 374.68449064 -334.59375 377.30859375 C-334.31208984 378.45126709 -334.03042969 379.59394043 -333.74023438 380.77124023 C-331.69383445 389.69724254 -330.37171496 397.70100614 -335 406 C-338.92802975 410.53234202 -341.84721414 412.752959 -347.8125 413.4375 C-359.85271159 413.133677 -371.9443205 406.43270321 -382.4375 401.0625 C-383.07896973 400.73841156 -383.72043945 400.41432312 -384.38134766 400.08041382 C-395.27131749 394.57724309 -405.82990188 388.59401712 -416.31640625 382.35546875 C-441.21617735 365.88520711 -441.21617735 365.88520711 -469.08740234 357.82641602 C-469.88278412 357.81292618 -470.67816589 357.79943634 -471.49765015 357.78553772 C-472.77885239 357.76988014 -472.77885239 357.76988014 -474.0859375 357.75390625 C-475.92318106 357.72092414 -477.76042053 357.68771334 -479.59765625 357.65429688 C-482.47148372 357.60726884 -485.3453002 357.56291044 -488.21923828 357.52319336 C-521.96541524 357.03458476 -521.96541524 357.03458476 -530.25 348.75 C-534.16714456 342.59448712 -536.25763899 336.32605237 -535 329 C-529.60997394 312.96011568 -513.85894045 300.57831267 -502.24609375 289.015625 C-500.41687573 287.18760136 -498.58802973 285.3592054 -496.75953674 283.53045654 C-492.94247105 279.71494788 -489.12221819 275.90267699 -485.29907227 272.09326172 C-480.89850202 267.70843903 -476.50320287 263.31838908 -472.11086601 258.92531991 C-467.85623839 254.67007911 -463.59869263 250.41777401 -459.33967781 246.16692352 C-457.53985537 244.37026932 -455.74062567 242.57302111 -453.94201469 240.77515411 C-451.42534814 238.26066909 -448.905408 235.74951124 -446.38452148 233.23925781 C-445.6513118 232.50559494 -444.91810211 231.77193207 -444.16267395 231.01603699 C-440.14896238 227.02690793 -436.04381204 223.20640402 -431.74667454 219.52349472 C-429.12178229 217.2339958 -426.69772407 214.7913392 -424.25 212.3125 C-423.74758789 211.80630127 -423.24517578 211.30010254 -422.72753906 210.77856445 C-421.14917288 209.1881815 -419.57414991 207.59455555 -418 206 C-406.201088 194.04813914 -406.201088 194.04813914 -399.859375 188.63671875 C-396.40562492 185.59654798 -393.22043546 182.28333459 -390 179 C-385.43006238 174.34080579 -380.78930554 169.88083983 -375.84375 165.62109375 C-373.26929553 163.35753739 -370.8952606 160.95297773 -368.5 158.5 C-364.86932525 154.82009365 -361.17408451 151.29180951 -357.22265625 147.95703125 C-355.39968617 146.35192051 -353.66557275 144.71208268 -351.93359375 143.01171875 C-344.19997518 135.47654347 -338.72446355 131.14255671 -327.625 130.5625 C-313.6924459 131.14141499 -305.68025528 138.93979931 -296 148 C-294.57306964 149.31787399 -293.14598356 150.63557938 -291.71875 151.953125 C-284.43721177 158.71566433 -277.32048526 165.6230756 -270.33081055 172.68603516 C-266.94822724 176.0917684 -263.49491298 179.34857139 -259.828125 182.4453125 C-258.52136329 183.5566184 -257.24280422 184.7014333 -255.984375 185.8671875 C-251.47393096 190.0161074 -247.31068298 193.66902996 -240.9140625 194.16015625 C-229.94862954 193.67921621 -222.01331727 185.56832226 -214.875 178.0625 C-206.29534123 169.17907093 -206.29534123 169.17907093 -202.1640625 165.65234375 C-196.63980319 160.91775185 -191.60586099 155.67523859 -186.5 150.5 C-184.51349704 148.48650477 -182.523424 146.47663278 -180.53125 144.46875 C-179.66048828 143.58638672 -178.78972656 142.70402344 -177.89257812 141.79492188 C-175.72281565 139.64950836 -173.46066743 137.6433774 -171.15039062 135.65039062 C-166.92904433 131.98963554 -162.98793287 128.09852608 -159.0625 124.125 C-158.33812744 123.39684082 -157.61375488 122.66868164 -156.86743164 121.91845703 C-154.57581697 119.61474354 -152.28749348 117.30780526 -150 115 C-146.98214919 111.95535221 -143.96086584 108.91417033 -140.9375 105.875 C-139.92151733 104.84656982 -139.92151733 104.84656982 -138.88500977 103.79736328 C-135.05328824 99.94629678 -131.10613951 96.31727262 -126.99389648 92.76904297 C-123.53691423 89.70190774 -120.30926935 86.41154778 -117.0625 83.125 C-116.33812744 82.39684082 -115.61375488 81.66868164 -114.86743164 80.91845703 C-112.57581697 78.61474354 -110.28749348 76.30780526 -108 74 C-104.98214919 70.95535221 -101.96086584 67.91417033 -98.9375 64.875 C-97.92151733 63.84656982 -97.92151733 63.84656982 -96.88500977 62.79736328 C-92.99254479 58.88524665 -88.9843792 55.18545074 -84.8059082 51.58105469 C-82.47895916 49.54383392 -80.29452593 47.39080747 -78.125 45.1875 C-77.28453125 44.33929688 -76.4440625 43.49109375 -75.578125 42.6171875 C-74.30195312 41.32167969 -74.30195312 41.32167969 -73 40 C-67.74761956 34.66803803 -62.4878317 29.45492799 -56.8046875 24.58203125 C-54.06906375 22.18391952 -51.53848865 19.60321299 -49 17 C-36.20702571 4.06611176 -19.23687486 -11.35290975 0 0 Z " fill="#27C9F6" transform="translate(590,73)"/>
<path d="M0 0 C7.26258276 2.79292006 14.53414274 5.56132499 21.81196594 8.31427002 C106.10068869 40.20136492 106.10068869 40.20136492 139.46040344 54.63067627 C140.42848938 55.04881592 141.39657532 55.46695557 142.39399719 55.89776611 C145.09371861 57.07773694 147.77942007 58.28381446 150.46040344 59.50567627 C151.59252258 60.0058728 151.59252258 60.0058728 152.74751282 60.51617432 C157.60709552 62.80106464 160.35800265 65.22385697 163.46040344 69.63067627 C164.9205971 74.01125725 165.20103913 78.06226923 164.46040344 82.63067627 C162.09307162 86.85640214 158.97709714 89.85148961 154.46040344 91.63067627 C145.30971605 91.840234 136.10731987 90.06483951 127.13349915 88.44796753 C124.93703454 88.05272458 122.73903796 87.66718119 120.54048157 87.28375244 C117.28552914 86.71534386 114.03116602 86.14373707 110.77729797 85.56915283 C57.19928391 71.43585352 57.19928391 71.43585352 5.52290344 77.50567627 C3.35070891 79.74369488 2.77195516 80.59446321 2.46040344 83.63067627 C18.34368363 114.98646215 87.12133827 131.37603692 118.17500305 141.61486816 C158.26307908 154.72984776 199.05801526 165.21445808 239.90457535 175.65010834 C430.26056227 224.28415521 430.26056227 224.28415521 546.46040344 270.63067627 C547.44073547 271.13002686 547.44073547 271.13002686 548.44087219 271.63946533 C556.57906394 275.87185464 564.19433397 280.97900157 569.52290344 288.56817627 C571.97870092 296.59044804 570.31499011 303.31717242 566.46040344 310.63067627 C564.39790344 313.69317627 564.39790344 313.69317627 561.46040344 315.63067627 C551.97115192 317.46835049 541.80939241 316.85114557 532.1672821 316.94241333 C530.32404491 316.96282382 528.48081066 316.98350198 526.6375792 317.00442433 C521.61252527 317.05979968 516.58742799 317.10850191 511.56228617 317.15515032 C508.3516977 317.18517517 505.14112596 317.21664539 501.93055415 317.24839759 C451.67705325 317.74012105 401.42403829 317.77922223 351.16855256 317.76597667 C342.09066855 317.76364739 333.01278641 317.7634245 323.93490219 317.76449203 C322.61671938 317.76464527 321.29853657 317.7647985 319.94040882 317.76495638 C317.9313894 317.76519444 315.92236998 317.76543567 313.91335056 317.76568327 C289.1543418 317.76869788 264.39533674 317.76603806 239.63632856 317.76058637 C217.82215104 317.75581969 196.00797936 317.75629226 174.19380188 317.76104736 C149.39415949 317.76643587 124.5945203 317.76850888 99.79487741 317.7654351 C97.14004477 317.76511668 94.48521213 317.76480231 91.83037949 317.76449203 C90.52557613 317.76433776 89.22077277 317.76418348 87.87642992 317.76402453 C78.82022864 317.7631724 69.76402947 317.76459309 60.70782852 317.76697159 C49.65983133 317.76981101 38.61184122 317.76894483 27.56384481 317.76369084 C21.96306161 317.76111233 16.36229008 317.75994582 10.76150703 317.76334 C-11.29426906 317.77542303 -33.34613082 317.68059187 -55.39909597 317.30357085 C-57.55896775 317.26708246 -59.71888196 317.23300175 -61.87883489 317.20168282 C-72.82889743 317.03767848 -83.73662088 316.67481996 -94.65376854 315.77961922 C-95.56106625 315.7118813 -96.46836396 315.64414338 -97.40315554 315.57435279 C-102.33661477 315.1244296 -106.36685068 314.52779163 -110.53959656 311.63067627 C-112.49718939 308.22036083 -112.82018103 305.13104198 -112.94911003 301.24338531 C-112.98719501 300.18970811 -113.02527998 299.13603091 -113.06451905 298.0504241 C-113.09487586 296.91469662 -113.12523268 295.77896914 -113.1565094 294.60882568 C-113.19412506 293.4116701 -113.23174072 292.21451451 -113.27049625 290.98108149 C-113.65524655 277.64841393 -113.68026441 264.31740247 -113.66899109 250.98028564 C-113.66980202 248.22884033 -113.67209822 245.47739665 -113.67430115 242.72595215 C-113.67869171 236.10381454 -113.67781313 229.48168843 -113.67488851 222.85955042 C-113.67260917 217.47086491 -113.67233276 212.08218256 -113.67341232 206.6934967 C-113.67356556 205.9199888 -113.67371879 205.14648089 -113.67387667 204.34953335 C-113.67419646 202.77716966 -113.67452067 201.20480598 -113.67484926 199.6324423 C-113.67768395 184.97491526 -113.67444802 170.31739454 -113.66904889 155.65986854 C-113.66457554 143.12799922 -113.66536507 130.59613917 -113.66996765 118.06427002 C-113.67533682 103.43869579 -113.67741689 88.81312705 -113.67435539 74.18755198 C-113.6740369 72.62414455 -113.67372253 71.06073713 -113.67341232 69.49732971 C-113.67325805 68.72848881 -113.67310377 67.95964792 -113.67294482 67.16750881 C-113.67208721 61.79151636 -113.67352597 56.41552743 -113.67589188 51.03953552 C-113.67871591 44.47984092 -113.67789697 37.92015825 -113.67261113 31.36046499 C-113.67001001 28.0243233 -113.66945932 24.6882176 -113.67226028 21.35207367 C-113.68106309 9.79484569 -113.68169354 -1.76421098 -113.22291565 -13.31402588 C-113.20146142 -14.07702578 -113.18000719 -14.84002568 -113.15790284 -15.62614679 C-112.94542068 -19.91151844 -112.33016033 -22.61682082 -109.47709656 -25.86932373 C-107.54740906 -27.27557373 -107.54740906 -27.27557373 -105.53959656 -28.36932373 C-104.63854187 -28.91072998 -104.63854187 -28.91072998 -103.71928406 -29.46307373 C-78.95962806 -41.48031263 -23.70937548 -9.12676031 0 0 Z " fill="#27C9F6" transform="translate(113.53959655761719,479.36932373046875)"/>
<path d="M0 0 C0.95338257 -0.00423477 1.90676514 -0.00846954 2.88903809 -0.01283264 C6.00940294 -0.02277081 9.12962198 -0.02273687 12.25 -0.01953125 C13.32354736 -0.018927 14.39709473 -0.01832275 15.50317383 -0.0177002 C111.3365161 0.12818111 205.98330842 18.65056679 417.73352051 74.13104248 C464.26485347 87.98177786 464.26485347 87.98177786 511.25 100.16796875 C511.9769104 100.34094482 512.7038208 100.5139209 513.45275879 100.69213867 C529.98501167 104.61051179 546.55607327 108.21816347 563.3125 111.04296875 C565.01176636 111.32962402 565.01176636 111.32962402 566.74536133 111.62207031 C583.97554203 114.38773329 600.93311782 115.54937986 618.375 115.48046875 C619.36167664 115.4783136 620.34835327 115.47615845 621.3649292 115.47393799 C636.51466817 115.42095724 651.31905183 114.96422406 666.25 112.16796875 C667.32233887 111.96929199 668.39467773 111.77061523 669.49951172 111.56591797 C694.40641238 106.79468646 717.41155816 98.49545626 740.56298828 88.27783203 C747.9432696 85.22942581 754.28155626 84.35589805 762.25 85.16796875 C767.17949159 87.41650878 769.76296862 90.37813053 772.25 95.16796875 C773.07745828 100.35378327 773.37921194 105.35739085 773.39526367 110.61523438 C773.40030159 111.661082 773.40030159 111.661082 773.40544128 112.72805786 C773.41485953 115.01013016 773.41689029 117.29212827 773.41796875 119.57421875 C773.4211895 121.18355335 773.42455417 122.79288767 773.42805481 124.40222168 C773.43402469 127.77108436 773.4358971 131.13992147 773.43530273 134.50878906 C773.43520166 138.78031477 773.44880649 143.05167221 773.46607494 147.32315826 C773.47731766 150.64877033 773.47921816 153.97434343 773.47869301 157.29997253 C773.47985657 158.87209142 773.48418444 160.44421188 773.49202538 162.01631165 C773.62918031 192.37504455 773.62918031 192.37504455 767.25 201.16796875 C749.3656266 211.62863998 717.29596455 206.32680468 696.92362595 206.29674149 C694.09346216 206.29292623 691.26330183 206.29088455 688.43313599 206.28927612 C652.19675226 206.26528611 615.96124263 206.04125411 579.72593284 205.77769399 C575.39408309 205.7462117 571.06222834 205.71563684 566.73036641 205.68587911 C482.45681647 205.10606316 409.02134217 196.56717521 330.36486816 164.04107666 C328.03090225 163.07751584 325.69482235 162.11920611 323.35839844 161.16162109 C303.58791631 153.05627267 283.86150879 144.84519252 264.14233398 136.6159668 C255.15277831 132.86473165 246.16022967 129.12070255 237.16595459 125.38079834 C235.23872395 124.57920755 233.3116779 123.77717278 231.38482666 122.97467041 C203.56913588 111.39044517 175.59776607 100.38612382 147.25 90.16796875 C146.41507019 89.86695251 145.58014038 89.56593628 144.71990967 89.25579834 C108.74714076 76.31024284 72.37374657 64.59533296 35.875 53.23046875 C-24.75212358 34.33828093 -24.75212358 34.33828093 -32.1875 21.73046875 C-33.01775106 17.94821392 -33.13909608 14.77414428 -31.75 11.16796875 C-23.65440127 1.06353658 -12.09710925 0.01634268 0 0 Z " fill="#27C9F6" transform="translate(426.75,590.83203125)"/>
</svg>
